<svg xmlns="http://www.w3.org/2000/svg" width="492" height="111" fill="none"><g clip-path="url(#a)"><mask id="b" width="111" height="111" x="0" y="0" maskUnits="userSpaceOnUse" style="mask-type:luminance"><path fill="#fff" d="M110.02 0H0v110.03h110.02V0Z"/></mask><g mask="url(#b)"><mask id="c" width="111" height="111" x="0" y="0" maskUnits="userSpaceOnUse" style="mask-type:luminance"><path fill="#fff" d="M87.13 0H22.89A22.89 22.89 0 0 0 0 22.89v64.25a22.89 22.89 0 0 0 22.89 22.89h64.24a22.89 22.89 0 0 0 22.89-22.89V22.89A22.89 22.89 0 0 0 87.13 0Z"/></mask><g mask="url(#c)"><path fill="#3583DD" d="M0 0h110v110H0V0Z"/></g></g><path fill="#3583DD" d="M55.01 91.06a7.15 7.15 0 0 1-2.85-.56 7.09 7.09 0 0 1-2.41-1.62 7.23 7.23 0 0 1-2.04-3.81 7 7 0 0 1-.14-1.44v-2.48h14.88v2.48a7 7 0 0 1-.62 2.82 7.5 7.5 0 0 1-3.97 4.03 7.66 7.66 0 0 1-2.85.58Z"/><path fill="#3583DD" d="M45.09 81.15a5 5 0 0 1-4.58-3.07 4.73 4.73 0 0 1-.38-1.89v-8.17l-.75-.72a22.37 22.37 0 0 1-.21-31.68 22.16 22.16 0 0 1 7.26-4.87 22.16 22.16 0 0 1 21.02 2.08 22.16 22.16 0 0 1 8.22 10.09 22.28 22.28 0 0 1-2.22 21 22.28 22.28 0 0 1-2.82 3.38l-.75.72v8.17a4.9 4.9 0 0 1-3.06 4.58c-.6.25-1.24.38-1.89.38H45.09Z"/><path fill="#3583DD" d="M45.09 81.15a5 5 0 0 1-4.58-3.07 4.73 4.73 0 0 1-.38-1.89v-2.48h29.75v2.48a4.9 4.9 0 0 1-3.06 4.58c-.6.25-1.24.38-1.89.38H45.09Z"/><path fill="#DEDEDE" d="M55.88 49.07a4.31 4.31 0 0 1-2.9-2.41c-.05-.17-.17-.64.5-1.44 1.2-1.41 4.08.72 4.1.73a2.6 2.6 0 0 0 1.87.51 2.4 2.4 0 0 0 2.08-1.81 2.44 2.44 0 0 0-.24-1.91 2.48 2.48 0 0 0-.63-.74 12 12 0 0 0-3.13-1.7v-1.34A2.46 2.46 0 0 0 56 36.67a2.4 2.4 0 0 0-.95-.19c-.34 0-.68.06-1 .2a2.46 2.46 0 0 0-1.54 2.29v1.07a6 6 0 0 0-2.83 2 6.46 6.46 0 0 0-1.51 5.9 9.2 9.2 0 0 0 6 5.78 4.34 4.34 0 0 1 2.91 2.4c0 .18.16.64-.51 1.44-1.19 1.41-4-.69-4.1-.73a2.6 2.6 0 0 0-2.79-.19c-.28.17-.53.39-.73.64-.2.26-.34.55-.43.86a2.52 2.52 0 0 0 .87 2.64c.95.71 2 1.27 3.13 1.67v1.37a2.54 2.54 0 0 0 .73 1.75 2.48 2.48 0 0 0 1.81.73 2.41 2.41 0 0 0 1.75-.73 2.5 2.5 0 0 0 .73-1.75V62.7a6 6 0 0 0 2.83-1.92 6.48 6.48 0 0 0 1.51-5.89 9.14 9.14 0 0 0-6-5.79v-.03Z"/><mask id="d" width="7" height="11" x="52" y="14" maskUnits="userSpaceOnUse" style="mask-type:luminance"><path fill="#fff" d="M58.59 14.18h-6.1v10.7h6.1v-10.7Z"/></mask><g mask="url(#d)"><path fill="#DEDEDE" d="M55.01 24.1a2.38 2.38 0 0 0 2.29-1.53c.12-.3.19-.61.19-.94v-5a2.46 2.46 0 0 0-1.53-2.3 2.46 2.46 0 0 0-2.7.55 2.46 2.46 0 0 0-.74 1.75v5a2.56 2.56 0 0 0 .73 1.76c.23.23.5.41.81.53.3.13.62.2.95.19Z"/></g><path fill="#DEDEDE" d="M37.98 26.86c.17.28.38.53.64.73.26.2.55.34.86.43a2.66 2.66 0 0 0 1.92-.25 2.46 2.46 0 0 0 1.15-1.51 2.44 2.44 0 0 0-.25-1.92l-2.47-4.26a2.45 2.45 0 0 0-2.5-1.22 2.5 2.5 0 0 0-2.08 1.82c-.17.64-.08 1.31.25 1.88l2.48 4.3ZM23.7 36.17l4.29 2.48a2.52 2.52 0 0 0 2.79-.17c.25-.2.46-.45.63-.73.17-.28.27-.6.31-.92a2.46 2.46 0 0 0-1.22-2.5l-4.29-2.48a2.64 2.64 0 0 0-1.92-.25 2.53 2.53 0 0 0-1.51 1.16 2.51 2.51 0 0 0 .92 3.41Z"/><mask id="e" width="12" height="7" x="17" y="47" maskUnits="userSpaceOnUse" style="mask-type:luminance"><path fill="#fff" d="M28.08 47.77H17.81v6.1h10.27v-6.1Z"/></mask><g mask="url(#e)"><path fill="#DEDEDE" d="M27.73 51.39c0-.33-.06-.65-.19-.95a2.5 2.5 0 0 0-2.29-1.53h-5a2.5 2.5 0 0 0-2.29 1.53 2.41 2.41 0 0 0 .54 2.7 2.46 2.46 0 0 0 1.75.73h5a2.46 2.46 0 0 0 2.29-1.53c.13-.3.2-.62.19-.95Z"/></g><path fill="#DEDEDE" d="M27.99 64.12 23.7 66.6a2.43 2.43 0 0 0-1.15 1.51 2.46 2.46 0 0 0 1.75 3.07c.32.1.67.12 1 .07.32-.05.64-.15.92-.31l4.25-2.49c.28-.17.54-.38.74-.64a2.5 2.5 0 0 0-1.33-3.91c-.33-.09-.67-.11-1-.06-.31.03-.61.13-.89.28ZM68.64 27.77a2.44 2.44 0 0 0 1.92.24c.31-.08.6-.23.87-.42a3 3 0 0 0 .64-.73l2.47-4.3c.17-.28.27-.59.31-.91.07-.33.07-.67 0-1-.09-.31-.24-.6-.43-.87a2.51 2.51 0 0 0-3.48-.46c-.26.2-.48.44-.64.73l-2.48 4.29c-.17.28-.27.6-.31.92a2.44 2.44 0 0 0 .49 1.87c.17.25.39.47.64.64ZM80.83 38.99c.44 0 .87-.11 1.24-.34l4.29-2.48a2.44 2.44 0 0 0 1.16-1.5 2.5 2.5 0 0 0-.24-1.92 2.48 2.48 0 0 0-.65-.72c-.26-.2-.55-.35-.87-.43-.33-.1-.67-.11-1-.06-.32.04-.64.15-.92.31l-4.29 2.48a2.48 2.48 0 0 0 1.24 4.63l.04.03Z"/><mask id="f" width="12" height="7" x="81" y="47" maskUnits="userSpaceOnUse" style="mask-type:luminance"><path fill="#fff" d="M92.19 47.77h-10.7v6.1h10.7v-6.1Z"/></mask><g mask="url(#f)"><path fill="#DEDEDE" d="M89.72 48.9h-4.95c-.33 0-.65.07-.95.2a2.42 2.42 0 0 0-1.53 2.29 2.39 2.39 0 0 0 .72 1.75 2.56 2.56 0 0 0 1.76.73h4.95a2.56 2.56 0 0 0 1.81-.73c.23-.23.41-.5.53-.8a2.41 2.41 0 0 0 0-1.9 2.32 2.32 0 0 0-1.34-1.34c-.32-.14-.66-.2-1-.2Z"/></g><path fill="#DEDEDE" d="m86.31 66.6-4.29-2.48a2.52 2.52 0 0 0-2.79.17c-.53.4-.89 1-1 1.65a2.53 2.53 0 0 0 .5 1.87c.2.26.45.47.73.63l4.29 2.49a2.54 2.54 0 0 0 2.75-.18c.43-.34.74-.8.89-1.33.14-.53.1-1.09-.11-1.59-.17-.5-.52-.94-.97-1.23Z"/><mask id="g" width="51" height="68" x="29" y="26" maskUnits="userSpaceOnUse" style="mask-type:luminance"><path fill="#fff" d="M79.95 26.41H29.6v66.73h50.35V26.41Z"/></mask><g mask="url(#g)"><path fill="#DEDEDE" d="M55.01 26.59c-1.22 0-2.44.09-3.65.26a24.6 24.6 0 0 0-15.58 8.86 24.52 24.52 0 0 0-4.86 9.74 24.94 24.94 0 0 0 2.32 17.77 24.78 24.78 0 0 0 4.42 5.82v7.13a7.83 7.83 0 0 0 .56 2.84c.19.45.42.88.7 1.29a6.53 6.53 0 0 0 2.04 2.08 7.5 7.5 0 0 0 4.13 1.26c0 .65.06 1.3.19 1.93a9.27 9.27 0 0 0 1.47 3.6 9.82 9.82 0 0 0 6.31 4.21 9.95 9.95 0 0 0 11.86-9.72 7.3 7.3 0 0 0 7.24-5.99c.1-.48.14-.96.14-1.45v-7.13a25 25 0 0 0 6.93-12.68 24.66 24.66 0 0 0-5.06-20.67 23.46 23.46 0 0 0-2.52-2.66 25.11 25.11 0 0 0-16.64-6.49Zm0 62a4.89 4.89 0 0 1-4.58-3.06 5 5 0 0 1-.39-1.89h9.93a4.94 4.94 0 0 1-4.96 4.95Zm9.92-9.91H45.09a2.56 2.56 0 0 1-1.81-.73c-.23-.23-.4-.5-.53-.8-.13-.3-.2-.62-.19-.95h24.8c0 .33-.07.65-.2.95a2.38 2.38 0 0 1-1.34 1.34c-.28.11-.58.17-.89.18v.01Zm3.3-12.52a2.35 2.35 0 0 0-.82 1.84v3.23h-24.8V68a2.36 2.36 0 0 0-.78-1.85c-.99-.9-1.88-1.88-2.68-2.94a19.73 19.73 0 0 1-2-3.42 20 20 0 0 1-1.87-7.7A19.79 19.79 0 0 1 47.36 33.1a19.73 19.73 0 0 1 22.02 4.49 20.13 20.13 0 0 1 4.25 6.69c.46 1.24.8 2.53 1 3.84a20.33 20.33 0 0 1-3.62 15.09 20.8 20.8 0 0 1-2.78 2.94v.01Z"/></g><path fill="#DEDEDE" d="M129.94 91.77a6.43 6.43 0 0 1-5.77-3.43 5.2 5.2 0 0 1-.48-2.21V25.31a5.11 5.11 0 0 1 1.86-4 6.37 6.37 0 0 1 4.39-1.67 6.5 6.5 0 0 1 5.86 3.46c.32.7.49 1.45.48 2.21v26.08l11.68-27.08a8.26 8.26 0 0 1 2.6-3.58 6.59 6.59 0 0 1 3.84-1c1.28 0 2.53.34 3.62 1a4.52 4.52 0 0 1 2.12 2.95c.33 1.39.2 2.84-.36 4.15a76.94 76.94 0 0 1-1.64 3.91L146.96 54c3.14.28 5.47 1.3 7 3.08a9.82 9.82 0 0 1 2.27 6.58v12.09a10.1 10.1 0 0 0 .86 4.89 2.86 2.86 0 0 0 2.67 1.45 5.78 5.78 0 0 0 4.43-2 40.71 40.71 0 0 0 3.43-3.81l4.44 3.91a42.64 42.64 0 0 1-4.65 5.74 22.02 22.02 0 0 1-5.79 4.34 14.71 14.71 0 0 1-7.08 1.5 11.28 11.28 0 0 1-5.51-1.5 9.5 9.5 0 0 1-3.27-3.53c-.7-1.49-1.11-3.1-1.21-4.74a242.8 242.8 0 0 0-.41-5v-9.66a6.86 6.86 0 0 0-.64-2.76 4.84 4.84 0 0 0-2-1.89c-1.14-.67-2.89-.83-5.24-.5v24a5.2 5.2 0 0 1-1.86 4 6.57 6.57 0 0 1-4.46 1.58Z"/><path fill="#DEDEDE" d="M178.27 91.77c-2.38.04-4.7-.76-6.55-2.26a10.93 10.93 0 0 1-3.22-5.39c-.62-2.26-.92-4.6-.91-6.94V58.45c0-6.37 2.05-11.24 6.16-14.61 3.2-2.67 7.4-4 12.58-4a16.8 16.8 0 0 1 12.11 4.48c3.13 3 4.7 7.05 4.7 12.14v19.29c-.12 1.67.16 3.35.81 4.89a2.67 2.67 0 0 0 2.5 1.45c1.3.05 2.59-.39 3.58-1.24 1.18-.9 2.24-1.96 3.17-3.12.71-.86 1.38-1.75 2-2.67l4.34 3.93c-1.4 2.2-2.96 4.3-4.69 6.25a21.53 21.53 0 0 1-6.11 4.81 15 15 0 0 1-7.53 1.72 9.91 9.91 0 0 1-6.24-2.1 11.7 11.7 0 0 1-3.32-4.84 27.07 27.07 0 0 1-5.91 5.08 13.39 13.39 0 0 1-7.47 1.86Zm5.23-9.68a4.87 4.87 0 0 0 4-1.83 62.85 62.85 0 0 0 3.07-3.7V56.32a10.6 10.6 0 0 0-1.07-4.77c-.7-1.44-2.05-2.16-4.05-2.16a4.51 4.51 0 0 0-4.06 2.16 9.14 9.14 0 0 0-1.19 4.68v19.52c-.12 1.67.16 3.35.81 4.89a2.67 2.67 0 0 0 2.49 1.45Z"/><path fill="#DEDEDE" d="M230.93 91.77A18.52 18.52 0 0 1 219.54 88a21.94 21.94 0 0 1-7.34-9.53l4.84-3.41c3.41 4.56 7.44 6.94 12.08 7.15 1.6.06 3.17-.3 4.58-1.05a3.78 3.78 0 0 0 2.07-4 3.56 3.56 0 0 0-1.88-3.24 34.6 34.6 0 0 0-4.36-1.81c-1.96-.73-3.84-1.47-5.65-2.2a19.33 19.33 0 0 1-4.94-2.93 15.3 15.3 0 0 1-3.62-4.57 13.1 13.1 0 0 1-1.41-6.2 16 16 0 0 1 1.81-8.3 14.3 14.3 0 0 1 5-5.29 17.16 17.16 0 0 1 5.25-2.17c1.97-.45 3.98-.68 6-.67 1.68 0 3.36.19 5 .57 1.56.35 3.06.94 4.43 1.77a11.73 11.73 0 0 1 6.43 10.08 9 9 0 0 1-1.07 5.12c-.85 1.48-2.37 2.22-4.58 2.22-3.69.08-5.63-1.59-5.84-5 0-1.35-.46-2.67-1.31-3.72a4.68 4.68 0 0 0-3.72-1.4 4.82 4.82 0 0 0-3.84 1.76 6.3 6.3 0 0 0-1.31 4.08 5.7 5.7 0 0 0 2.22 4.62 14.76 14.76 0 0 0 5.24 2.72c1.6.47 3.27 1 5 1.62 1.68.59 3.29 1.36 4.8 2.31 1.4 1.01 2.6 2.3 3.5 3.77 1 1.73 1.5 3.7 1.43 5.7.11 3.15-.75 6.27-2.48 8.9a14.65 14.65 0 0 1-6.44 5.3 20.26 20.26 0 0 1-8.5 1.57Z"/><path fill="#3583DD" d="M270.12 91.77a18.53 18.53 0 0 1-11.4-3.77 22 22 0 0 1-7.34-9.53l4.84-3.41c3.56 4.77 7.59 7.15 12.08 7.15a9.43 9.43 0 0 0 3.32-.64 6.39 6.39 0 0 0 2.91-2.34 7.81 7.81 0 0 0 1.21-4.67v-1.81c.08-2.2-.5-4.38-1.67-6.25a18.9 18.9 0 0 0-4.36-4.62c-1.81-1.42-3.83-3-6-4.65-2.8-2.1-5.18-4.7-7-7.7a19.06 19.06 0 0 1-2.41-9.73l.1-3.41c-.07-2.91.57-5.8 1.86-8.41a13.57 13.57 0 0 1 5-5.49 21 21 0 0 1 10.79-2.81c3.32-.08 6.6.76 9.47 2.41a11.88 11.88 0 0 1 6.34 10 9.53 9.53 0 0 1-1.1 5.34 4.93 4.93 0 0 1-4.53 2.53c-3.69 0-5.63-1.85-5.84-5.55a6.17 6.17 0 0 0-1.43-3.67 4.54 4.54 0 0 0-3.6-1.36 3.85 3.85 0 0 0-3.6 1.81 8.3 8.3 0 0 0-1 4.24v4.32a9.21 9.21 0 0 0 1.31 4.93 14.44 14.44 0 0 0 3.27 3.7c1.33 1.03 2.67 2.05 4 3.05 2.08 1.48 4.13 3.06 6.15 4.74a21.26 21.26 0 0 1 5 5.94 16.7 16.7 0 0 1 2 8.36v3.32c.05 3.02-.56 6.02-1.81 8.77a15.68 15.68 0 0 1-4.82 6 19 19 0 0 1-11.74 3.21ZM301.64 91.77a6.43 6.43 0 0 1-5.76-3.43 5.2 5.2 0 0 1-.49-2.21V45.45a5.18 5.18 0 0 1 1.86-4 6.37 6.37 0 0 1 4.39-1.67 6.07 6.07 0 0 1 6 3.94 8.11 8.11 0 0 1 4.12-3c1.61-.62 3.32-.96 5.05-1 5.11-.12 8.94 1.83 11.47 5.84a20.24 20.24 0 0 1 5-4.15 13.76 13.76 0 0 1 6.46-1.69c3.34-.2 6.63.92 9.16 3.12a12.34 12.34 0 0 1 3.76 5.8c.8 2.49 1.2 5.09 1.17 7.7v19.41a10.7 10.7 0 0 0 .81 4.89 2.77 2.77 0 0 0 2.62 1.45c1.3.05 2.59-.39 3.58-1.24 1.17-.9 2.22-1.95 3.12-3.12a89.27 89.27 0 0 0 2-2.67l4.33 3.93a40.24 40.24 0 0 1-4.64 6.25 22.55 22.55 0 0 1-6.11 4.81 14.77 14.77 0 0 1-7.48 1.72c-2.41.05-4.77-.75-6.65-2.26a10.57 10.57 0 0 1-3.17-5.39c-.58-2.27-.87-4.6-.86-6.94V56.54a12 12 0 0 0-1-4.94c-.67-1.48-2.05-2.21-4.13-2.21a4.7 4.7 0 0 0-4 2.07 8.4 8.4 0 0 0-1.31 4.77v29.89a5.26 5.26 0 0 1-1.81 4 6.39 6.39 0 0 1-4.43 1.64 6.55 6.55 0 0 1-4.48-1.64 5.19 5.19 0 0 1-1.86-4V56.54c0-1.7-.34-3.38-1-4.94-.64-1.48-2-2.21-4.07-2.21a4.68 4.68 0 0 0-4 2.07 8.32 8.32 0 0 0-1.31 4.77v29.89a5.2 5.2 0 0 1-1.86 4 6.57 6.57 0 0 1-4.48 1.65Z"/><path fill="#3583DD" d="M376.66 91.77c-2.38.04-4.7-.76-6.56-2.26a10.93 10.93 0 0 1-3.22-5.39c-.61-2.26-.91-4.6-.9-6.94V58.45c0-6.37 2.05-11.24 6.15-14.61 3.2-2.67 7.4-4 12.58-4a16.8 16.8 0 0 1 12.12 4.44c3.13 3 4.7 7.05 4.7 12.14v19.33c-.12 1.67.16 3.35.81 4.89a2.67 2.67 0 0 0 2.5 1.45c1.3.05 2.59-.39 3.58-1.24 1.18-.9 2.24-1.96 3.17-3.12a27.98 27.98 0 0 0 2-2.67l4.34 3.93c-1.4 2.2-2.97 4.3-4.7 6.25a21.47 21.47 0 0 1-6.1 4.81 15.1 15.1 0 0 1-7.54 1.72 10 10 0 0 1-6.24-2.1 11.7 11.7 0 0 1-3.32-4.84 27.07 27.07 0 0 1-5.91 5.08 13.35 13.35 0 0 1-7.46 1.86Zm5.22-9.68a4.86 4.86 0 0 0 4-1.83 62.85 62.85 0 0 0 3.07-3.7V56.32c0-1.66-.38-3.3-1.12-4.77-.67-1.44-2-2.16-4-2.16a4.49 4.49 0 0 0-4.05 2.16 9.13 9.13 0 0 0-1.2 4.68v19.52c-.12 1.67.16 3.35.81 4.89a2.68 2.68 0 0 0 2.49 1.45Z"/><path fill="#3583DD" d="M419.83 91.77a6.4 6.4 0 0 1-5.75-3.43 5.2 5.2 0 0 1-.49-2.21V45.45a5.18 5.18 0 0 1 1.86-4 6.34 6.34 0 0 1 4.38-1.67 6.06 6.06 0 0 1 6 3.94 7.93 7.93 0 0 1 3.86-2.91 17.17 17.17 0 0 1 8.87-.74c1.29.23 2.51.73 3.6 1.46a11.86 11.86 0 0 1 5.22 8.15c.2 1.48.16 2.98-.14 4.44a7.33 7.33 0 0 1-1.86 3.69 5.76 5.76 0 0 1-4.12 1.55c-3.17.13-4.95-1.35-5.34-4.43-.15-1.38-.59-2.7-1.27-3.91-.63-1.08-1.86-1.62-3.67-1.62a4.12 4.12 0 0 0-3.74 2.07 9.64 9.64 0 0 0-1.1 4.77v29.89a5.2 5.2 0 0 1-1.86 4 6.55 6.55 0 0 1-4.45 1.64ZM473.62 91.77c-2.12.03-4.22-.34-6.2-1.1a12.51 12.51 0 0 1-4.48-2.93c-1.3-1.45-2.2-3.2-2.67-5.08a26.94 26.94 0 0 1-.74-6.5V51.7h-3.93a4.1 4.1 0 0 1-3.22-1.5 5.3 5.3 0 0 1-1.31-3.53 5.38 5.38 0 0 1 1.3-3.63 4.1 4.1 0 0 1 3.23-1.52h3.93V31.15a5.3 5.3 0 0 1 1.86-4 6.26 6.26 0 0 1 4.37-1.72 6.41 6.41 0 0 1 4.48 1.72 5.3 5.3 0 0 1 1.88 4v10.37h10.16a4.1 4.1 0 0 1 3.2 1.52c.88 1 1.35 2.3 1.32 3.63a5.28 5.28 0 0 1-1.31 3.53 4.1 4.1 0 0 1-3.21 1.5h-10.16v24.05c0 2.29.43 3.92 1.29 4.89a4.88 4.88 0 0 0 3.84 1.45 6.78 6.78 0 0 0 4-1.36 23.52 23.52 0 0 0 5.53-5.62l4.34 3.93a68.51 68.51 0 0 1-4.12 6.2 17.73 17.73 0 0 1-5.34 4.77 15.93 15.93 0 0 1-8.04 1.76Z"/></g><defs><clipPath id="a"><path fill="#fff" d="M0 0h491.14v110.03H0z"/></clipPath></defs></svg>